<svg width="121" height="120" viewBox="0 0 121 120" fill="none" xmlns="http://www.w3.org/2000/svg">
<path d="M49.4945 63.5785C49.4945 63.5785 46.4158 65.3701 51.6892 65.9757C58.0773 66.7051 61.3427 66.6001 68.3814 65.2698C68.3814 65.2698 70.2367 66.4295 72.8205 67.4345C57.0367 74.1966 37.098 67.0426 49.4945 63.5785ZM47.5642 54.752C47.5642 54.752 44.1105 57.3104 49.3877 57.856C56.2127 58.5601 61.6005 58.6182 70.9305 56.822C70.9305 56.822 72.2177 58.1307 74.2455 58.8441C55.1655 64.426 33.9133 59.2838 47.5642 54.752Z" fill="#0074BD"/>
<path d="M63.8233 39.779C67.7149 44.2583 62.8033 48.2858 62.8033 48.2858C62.8033 48.2858 72.678 43.1887 68.1433 36.8033C63.9068 30.8512 60.6602 27.8952 78.2412 17.699C78.2412 17.699 50.643 24.5896 63.8233 39.779Z" fill="#EA2D2E"/>
<path d="M84.6988 70.1073C84.6988 70.1073 86.9788 71.987 82.1882 73.4401C73.0794 76.1992 44.2719 77.0317 36.2704 73.5498C33.396 72.2982 38.7894 70.562 40.4854 70.1973C42.2544 69.8139 43.2651 69.8842 43.2651 69.8842C40.0663 67.6314 22.5885 74.3082 34.3879 76.2236C66.5666 81.4389 93.0444 73.8742 84.6988 70.1073ZM50.9769 45.6067C50.9769 45.6067 36.3247 49.0876 45.7888 50.3532C49.7863 50.8876 57.7494 50.7648 65.1726 50.1423C71.2372 49.6332 77.3235 48.5448 77.3235 48.5448C77.3235 48.5448 75.1869 49.4617 73.6391 50.5173C58.7572 54.4314 30.0144 52.6079 38.2897 48.6067C45.2863 45.2214 50.9769 45.6067 50.9769 45.6067ZM77.2625 60.2973C92.3891 52.4392 85.3944 44.8867 80.5129 45.9039C79.3194 46.1532 78.7832 46.3689 78.7832 46.3689C78.7832 46.3689 79.2285 45.6714 80.075 45.3723C89.7332 41.9786 97.1591 55.3857 76.9607 60.6957C76.9607 60.6957 77.1922 60.4857 77.2625 60.2973Z" fill="#0074BD"/>
<path d="M68.1444 1.23096C68.1444 1.23096 76.521 9.61127 60.1982 22.4953C47.1088 32.8331 57.2132 38.7263 60.1925 45.4622C52.5519 38.5678 46.9475 32.4985 50.7069 26.851C56.2279 18.5616 71.5232 14.5406 68.1444 1.23096Z" fill="#EA2D2E"/>
<path d="M52.4645 81.599C66.9808 82.5271 89.2792 81.0824 89.807 74.2134C89.807 74.2134 88.7927 76.8168 77.808 78.8831C65.4161 81.2156 50.1302 80.9446 41.0664 79.4484C41.0664 79.4484 42.9227 80.9859 52.4645 81.599Z" fill="#0074BD"/>
<path d="M89.1369 93.9196H88.6944V93.6721H89.885V93.9196H89.4444V95.1543H89.136L89.1369 93.9196ZM91.5135 93.9815H91.5079L91.0691 95.1543H90.8666L90.4307 93.9815H90.426V95.1543H90.1335V93.6721H90.5619L90.966 94.7211L91.371 93.6721H91.7966V95.1543H91.5135V93.9815ZM50.0854 107.847C48.7166 109.034 47.2691 109.701 45.9688 109.701C44.1182 109.701 43.1141 108.59 43.1141 106.809C43.1141 104.883 44.1885 103.472 48.4935 103.472H50.0844L50.0854 107.847ZM53.8644 112.111V98.9136C53.8644 95.5396 51.9397 93.314 47.3047 93.314C44.5991 93.314 42.2272 93.9833 40.2988 94.8346L40.8538 97.1718C42.3725 96.614 44.3366 96.0965 46.2641 96.0965C48.936 96.0965 50.0844 97.1718 50.0844 99.3974V101.065H48.7494C42.261 101.065 39.3332 103.582 39.3332 107.368C39.3332 110.63 41.2625 112.483 44.8954 112.483C47.2297 112.483 48.9744 111.519 50.6029 110.108L50.8991 112.112L53.8644 112.111ZM66.4757 112.111H61.7629L56.09 93.6524H60.2066L63.7279 104.995L64.5107 108.403C66.2882 103.474 67.5482 98.4693 68.1782 93.6533H72.1822C71.1107 99.7293 69.1794 106.401 66.4757 112.111ZM84.5582 107.847C83.1847 109.034 81.7363 109.701 80.4407 109.701C78.5882 109.701 77.585 108.59 77.585 106.809C77.585 104.883 78.6622 103.472 82.9625 103.472H84.5572L84.5582 107.847ZM88.3391 112.111V98.9136C88.3391 95.5396 86.4088 93.314 81.7775 93.314C79.0691 93.314 76.6982 93.9833 74.7697 94.8346L75.3257 97.1718C76.8444 96.614 78.8113 96.0965 80.7388 96.0965C83.4069 96.0965 84.5582 97.1718 84.5582 99.3974V101.065H83.2232C76.7329 101.065 73.806 103.582 73.806 107.368C73.806 110.63 75.7335 112.483 79.3654 112.483C81.7007 112.483 83.4425 111.519 85.0757 110.108L85.3738 112.112L88.3391 112.111ZM35.1894 115.248C34.1141 116.822 32.3722 118.068 30.4672 118.77L28.6025 116.571C30.0529 115.827 31.295 114.626 31.8735 113.507C32.3722 112.51 32.5794 111.229 32.5794 108.162V87.0852H36.5957V107.872C36.5957 111.974 36.2694 113.632 35.1894 115.248Z" fill="#EA2D2E"/>
</svg>
