<svg width="121" height="120" viewBox="0 0 121 120" fill="none" xmlns="http://www.w3.org/2000/svg">
<g clip-path="url(#clip0_258_171)">
<path d="M103.663 88.7401C111.993 88.7401 115.073 82.9301 117.968 74.2201C120.968 65.2501 120.838 56.6201 117.968 45.1301C115.903 36.8551 111.998 30.6101 103.663 30.6101H92.9277V43.3151C92.9277 53.1701 84.5677 61.4751 75.0377 61.4751H46.4277C38.6027 61.4751 32.1227 68.1701 32.1227 76.0201V103.29C32.1227 111.055 38.8727 115.61 46.4277 117.835C55.4777 120.485 64.1877 120.965 75.0327 117.835C82.2377 115.745 89.3377 111.535 89.3377 103.29V92.3851H60.7527V88.7451H103.663V88.7401ZM76.8277 99.6451C79.7977 99.6451 82.2127 102.085 82.2127 105.085C82.2127 108.115 79.8027 110.55 76.8277 110.55C75.3909 110.533 74.0191 109.949 73.0106 108.926C72.0021 107.902 71.4386 106.522 71.4427 105.085C71.4426 103.652 72.0082 102.276 73.0165 101.258C74.0249 100.239 75.3945 99.6596 76.8277 99.6451Z" fill="#F2BB30"/>
<path d="M17.3878 88.7451H27.2177V75.6701C27.2177 66.2151 35.3877 57.8801 45.1077 57.8801H73.7127C81.6677 57.8801 88.0178 51.3201 88.0178 43.3351V16.0451C88.0178 8.2801 81.4827 2.4601 73.7127 1.1551C64.1227 -0.429898 53.7027 -0.339898 45.1077 1.1851L45.1128 1.1801C33.0028 3.3201 30.8128 7.7901 30.8128 16.0651V26.9701H59.4478V30.6151H20.0678C11.7378 30.6151 4.44775 35.6251 2.17775 45.1351C-0.447248 56.0401 -0.552248 62.8401 2.17775 74.2251C4.20775 82.6901 9.06275 88.7451 17.3878 88.7451ZM43.3178 19.6851C41.8829 19.6758 40.5102 19.098 39.5008 18.0782C38.4913 17.0584 37.9274 15.68 37.9328 14.2451C37.9274 12.8079 38.4905 11.4268 39.4992 10.4031C40.508 9.37932 41.8806 8.79593 43.3178 8.7801C46.2678 8.7801 48.7027 11.2401 48.7027 14.2451C48.7027 17.2501 46.2928 19.6851 43.3178 19.6851Z" fill="#35668F"/>
</g>
<defs>
<clipPath id="clip0_258_171">
<rect width="120" height="120" fill="white" transform="translate(0.167725)"/>
</clipPath>
</defs>
</svg>
