<svg width="122" height="120" viewBox="0 0 122 120" fill="none" xmlns="http://www.w3.org/2000/svg">
<g clip-path="url(#clip0_258_167)">
<path d="M115.899 25.7796L35.4573 0.760552C31.5687 -0.448897 27.389 1.71866 26.1701 5.57756L0.955913 85.3955C-0.262985 89.2554 1.92158 93.402 5.81072 94.6114L86.2528 119.63C90.1414 120.84 94.3211 118.672 95.54 114.813L120.754 34.9946C121.974 31.1361 119.789 26.9891 115.899 25.7796H115.899ZM38.7502 85.2925C38.7502 88.7026 35.9387 91.4928 32.5017 91.4928H32.4786C29.0425 91.4928 26.2306 88.7026 26.2306 85.2925V53.5223C26.2306 50.1122 29.0425 47.3224 32.4786 47.3224H32.5017C35.9387 47.3224 38.7502 50.1122 38.7502 53.5223V85.2925ZM32.4904 41.218C29.0189 41.218 26.2046 38.4259 26.2046 34.9813C26.2046 31.5368 29.0189 28.7442 32.4904 28.7442C35.9614 28.7442 38.7758 31.5363 38.7758 34.9813C38.7758 38.4254 35.9614 41.218 32.4904 41.218ZM72.2997 91.472C56.6539 91.472 43.9924 78.624 43.9924 63.0996C43.9924 47.5747 56.6761 34.9894 72.3224 34.9894C80.3798 34.9894 87.6521 38.3276 92.8102 43.6865L95.8362 38.3739C98.9397 46.6809 100.96 56.3853 100.96 63.0448C100.96 78.5692 87.9455 91.472 72.2997 91.472Z" fill="#6DB33F"/>
<path d="M61.5961 82.3554C64.6367 81.4091 67.8781 80.4136 70.5895 79.5443C81.295 76.1144 90.4981 67.4782 92.9312 56.631C90.9947 61.7343 83.0884 71.7018 70.7057 75.6736C66.7325 76.9237 62.6118 77.715 58.5427 78.6476C58.0197 78.7676 57.303 78.6339 56.8438 78.3505C54.2359 76.7413 52.8304 73.8628 52.6088 70.9582C52.0112 63.1436 57.3602 56.7661 65.3123 55.1144C68.6515 54.4209 72.0899 54.6013 75.501 54.239C84.5104 53.2984 92.9799 46.8973 95.5381 41.5464C95.5381 41.5464 95.9973 42.5891 96.0961 42.8961C98.0298 48.907 99.5714 54.9972 99.7216 61.3497C99.8024 64.781 99.424 68.1585 98.2013 71.3999C95.7432 77.9154 90.7254 81.2191 84.0214 81.9968C80.1021 82.4513 76.1132 82.3511 72.1547 82.4267C68.9421 82.4881 65.224 82.3554 61.5961 82.3554ZM57.612 82.6832C57.612 84.008 56.5301 85.0813 55.195 85.0813C53.8599 85.0813 52.778 84.008 52.778 82.6832C52.778 81.3585 53.8599 80.2847 55.195 80.2847C56.5301 80.2847 57.612 81.3585 57.612 82.6832Z" fill="#6DB33F"/>
</g>
<defs>
<clipPath id="clip0_258_167">
<rect width="120.968" height="120" fill="white" transform="translate(0.199951)"/>
</clipPath>
</defs>
</svg>
